<?xml version="1.0" standalone="no"?>
<!DOCTYPE svg PUBLIC "-//W3C//DTD SVG 20010904//EN"
 "http://www.w3.org/TR/2001/REC-SVG-20010904/DTD/svg10.dtd">
<svg version="1.0" xmlns="http://www.w3.org/2000/svg"
 width="365.000000pt" height="97.000000pt" viewBox="0 0 365.000000 97.000000"
 preserveAspectRatio="xMidYMid meet">

<g transform="translate(0.000000,97.000000) scale(0.100000,-0.100000)"
fill="#000000" stroke="none">
<path d="M30 490 l0 -480 1740 0 1740 0 0 480 0 480 -1740 0 -1740 0 0 -480z
m3455 0 l0 -445 -1712 -3 -1713 -2 0 450 0 450 1713 -2 1712 -3 0 -445z"/>
<path d="M125 867 c-3 -6 -4 -181 -3 -387 l3 -375 822 -3 823 -2 0 390 0 390
-820 0 c-649 0 -822 -3 -825 -13z m485 -312 c0 -21 -5 -25 -30 -25 l-29 0 -3
-102 -3 -103 -27 -3 -28 -3 0 105 0 106 -35 0 c-31 0 -35 3 -35 25 0 25 0 25
95 25 95 0 95 0 95 -25z m240 0 c0 -24 -3 -25 -61 -25 -60 0 -60 0 -57 -27 3
-25 6 -26 51 -26 43 1 47 -1 47 -23 0 -22 -4 -24 -51 -24 -49 0 -50 -1 -47
-27 3 -27 6 -28 61 -31 53 -3 57 -5 57 -27 0 -25 -1 -25 -85 -25 l-85 0 0 130
0 130 85 0 c84 0 85 0 85 -25z m246 -100 c24 -66 43 -123 43 -127 1 -5 -12 -8
-28 -8 -25 0 -31 5 -36 30 -6 28 -10 30 -50 30 -39 0 -44 -3 -54 -30 -8 -24
-16 -30 -39 -30 l-29 0 46 130 c46 130 46 131 75 128 28 -3 32 -9 72 -123z
m213 55 c12 -38 24 -70 26 -70 2 0 14 32 26 70 l23 70 43 0 43 0 0 -130 0
-130 -25 0 c-24 0 -24 2 -27 88 l-3 87 -30 -85 c-23 -66 -35 -86 -50 -88 -18
-2 -25 10 -50 85 l-30 88 -3 -87 c-3 -86 -3 -88 -27 -88 l-25 0 0 130 0 130
43 0 43 0 23 -70z"/>
<path d="M1011 477 c-16 -42 -14 -54 12 -52 23 2 24 14 7 58 -8 21 -8 21 -19
-6z"/>
<path d="M2895 581 c-11 -5 -31 -21 -45 -36 -22 -23 -25 -36 -25 -97 0 -66 2
-71 33 -99 26 -24 41 -29 81 -29 60 0 94 28 111 91 15 55 -3 123 -40 151 -30
22 -87 31 -115 19z m86 -73 c18 -33 14 -95 -6 -118 -40 -44 -95 -9 -95 60 0
20 7 46 16 58 21 30 69 30 85 0z"/>
<path d="M1980 450 l0 -130 30 0 29 0 3 82 3 81 45 -81 c44 -80 46 -82 83 -82
l37 0 0 130 0 130 -30 0 -29 0 -3 -82 -3 -83 -45 82 c-44 81 -46 83 -82 83
l-38 0 0 -130z"/>
<path d="M2317 563 c-2 -10 -23 -69 -45 -131 l-41 -113 31 3 c25 2 34 9 38 28
5 21 12 25 48 28 40 3 43 1 53 -27 9 -25 17 -31 40 -31 16 0 29 1 29 3 0 1
-20 59 -44 127 -42 120 -45 125 -74 128 -21 2 -31 -2 -35 -15z m48 -93 c4 -16
7 -33 8 -37 1 -3 -8 -7 -20 -8 -25 -2 -26 -1 -17 44 8 39 20 40 29 1z"/>
<path d="M2490 555 c0 -22 4 -25 35 -25 l35 0 0 -105 0 -105 30 0 30 0 0 104
0 105 33 3 c24 2 33 8 35 26 3 22 1 22 -97 22 l-101 0 0 -25z"/>
<path d="M2720 450 l0 -130 30 0 30 0 0 130 0 130 -30 0 -30 0 0 -130z"/>
<path d="M3090 451 l0 -131 30 0 30 0 0 83 1 82 47 -82 c44 -77 49 -83 80 -83
l32 0 0 130 0 130 -25 0 c-24 0 -24 -2 -27 -82 l-3 -83 -45 80 c-43 75 -48 80
-83 83 l-37 3 0 -130z"/>
</g>
</svg>
